<svg xmlns="http://www.w3.org/2000/svg" width="360" height="96" viewBox="0 0 360 96" role="img" aria-labelledby="title desc">
  <title id="title">Blue Ribbon - Carry the Ribbon</title>
  <desc id="desc">B.R.A.N.C.H. repository carrier badge</desc>
  <rect width="360" height="96" rx="8" fill="#07111d"/>
  <path d="M54 17c15 0 28 11 32 26l-16 8c-1-10-8-18-16-18-9 0-16 8-16 18 0 8 5 15 12 17l-12 12c-11-6-18-17-18-30 0-18 15-33 34-33Z" fill="#64a8ff"/>
  <path d="M83 43c6 3 10 10 10 18 0 13-11 24-24 24H48l16-16h5c5 0 9-4 9-9 0-4-2-7-5-8l10-9Z" fill="#57d2c6"/>
  <text x="112" y="38" fill="#f4f7fb" font-family="Inter,Arial,sans-serif" font-size="22" font-weight="700">Carry the Ribbon</text>
  <text x="112" y="64" fill="#9eaaba" font-family="Inter,Arial,sans-serif" font-size="14">branchbootstrapv0 BRANCH0</text>
</svg>
